<?xml version="1.0" encoding="UTF-8" standalone="no"?>
<svg
   width="161.47217"
   height="25"
   viewBox="0 0 161.47217 25"
   version="1.1"
   id="svg661"
   sodipodi:docname="logo-black.svg"
   inkscape:version="1.1.1 (3bf5ae0d25, 2021-09-20)"
   xmlns:inkscape="http://www.inkscape.org/namespaces/inkscape"
   xmlns:sodipodi="http://sodipodi.sourceforge.net/DTD/sodipodi-0.dtd"
   xmlns="http://www.w3.org/2000/svg"
   xmlns:svg="http://www.w3.org/2000/svg">
  <defs
     id="defs665" />
  <sodipodi:namedview
     id="namedview663"
     pagecolor="#ffffff"
     bordercolor="#666666"
     borderopacity="1.0"
     inkscape:pageshadow="2"
     inkscape:pageopacity="0.0"
     inkscape:pagecheckerboard="0"
     showgrid="false"
     inkscape:zoom="6.117545"
     inkscape:cx="82.385989"
     inkscape:cy="-1.7163748"
     inkscape:window-width="1366"
     inkscape:window-height="721"
     inkscape:window-x="0"
     inkscape:window-y="20"
     inkscape:window-maximized="1"
     inkscape:current-layer="svg661" />
  <g
     aria-label="CenterLogistic"
     id="CenterLogistic"
     style="font-weight:700;font-size:15px;font-family:PTSans-Bold, 'PT Sans';fill:#2c2c2c">
    <path
       d="m 50.048828,16.399414 q -0.776367,0.402832 -1.618652,0.60791 -0.842285,0.205078 -1.757813,0.205078 -2.731933,0 -4.328613,-1.523437 -1.59668,-1.530762 -1.59668,-4.145508 0,-2.6220703 1.59668,-4.1455078 1.59668,-1.5307617 4.328613,-1.5307617 0.915528,0 1.757813,0.2050781 0.842285,0.2050781 1.618652,0.6079102 V 8.9433594 Q 49.265137,8.4086914 48.503418,8.159668 47.741699,7.9106445 46.899414,7.9106445 q -1.508789,0 -2.373047,0.9667969 -0.864258,0.9667969 -0.864258,2.6660156 0,1.691895 0.864258,2.658691 0.864258,0.966797 2.373047,0.966797 0.842285,0 1.604004,-0.249023 0.761719,-0.249024 1.54541,-0.783692 z"
       id="path11166" />
    <path
       d="m 60.456543,12.876465 v 0.74707 h -6.130371 q 0.09522,0.922852 0.666504,1.384278 0.571289,0.461425 1.596679,0.461425 0.827637,0 1.691895,-0.241699 0.871582,-0.249023 1.787109,-0.74707 v 2.021484 q -0.930175,0.351563 -1.860351,0.527344 -0.930176,0.183105 -1.860352,0.183105 -2.226562,0 -3.464355,-1.127929 -1.230469,-1.135254 -1.230469,-3.178711 0,-2.006836 1.208496,-3.1567386 1.21582,-1.1499023 3.339844,-1.1499023 1.933594,0 3.09082,1.1645508 1.164551,1.1645511 1.164551,3.1127931 z M 57.76123,12.004883 q 0,-0.74707 -0.439453,-1.201172 -0.432129,-0.461426 -1.135254,-0.461426 -0.761718,0 -1.237793,0.432129 -0.476074,0.424805 -0.593261,1.230469 z"
       id="path11163" />
    <path
       d="M 70.688477,12.004883 V 17 h -2.636719 v -0.812988 -3.010254 q 0,-1.062012 -0.05127,-1.464844 -0.04395,-0.402832 -0.161133,-0.593262 -0.153808,-0.256347 -0.41748,-0.395507 -0.263672,-0.146485 -0.600586,-0.146485 -0.820312,0 -1.289062,0.637207 -0.46875,0.629883 -0.46875,1.750488 V 17 H 62.441406 V 8.796875 h 2.622071 v 1.2011719 q 0.593261,-0.7177735 1.259765,-1.0546875 0.666504,-0.3442383 1.472168,-0.3442383 1.420899,0 2.15332,0.871582 0.739747,0.8715819 0.739747,2.5341799 z"
       id="path11160" />
    <path
       d="M 75.983887,6.4677734 V 8.796875 h 2.702636 v 1.875 h -2.702636 v 3.479004 q 0,0.571289 0.22705,0.776367 0.227051,0.197754 0.900879,0.197754 h 1.347657 V 17 h -2.248536 q -1.552734,0 -2.204589,-0.644531 -0.644532,-0.651856 -0.644532,-2.20459 v -3.479004 h -1.303711 v -1.875 h 1.303711 V 6.4677734 Z"
       id="path11157" />
    <path
       d="m 88.479004,12.876465 v 0.74707 h -6.130371 q 0.09521,0.922852 0.666504,1.384278 0.571289,0.461425 1.596679,0.461425 0.827637,0 1.691895,-0.241699 0.871582,-0.249023 1.787109,-0.74707 v 2.021484 q -0.930175,0.351563 -1.860351,0.527344 -0.930176,0.183105 -1.860352,0.183105 -2.226562,0 -3.464355,-1.127929 -1.230469,-1.135254 -1.230469,-3.178711 0,-2.006836 1.208496,-3.1567386 1.21582,-1.1499023 3.339844,-1.1499023 1.933594,0 3.09082,1.1645508 1.164551,1.1645511 1.164551,3.1127931 z m -2.695313,-0.871582 q 0,-0.74707 -0.439453,-1.201172 -0.432129,-0.461426 -1.135254,-0.461426 -0.761718,0 -1.237793,0.432129 -0.476074,0.424805 -0.593261,1.230469 z"
       id="path11154" />
    <path
       d="m 96.557617,11.030762 q -0.344238,-0.161133 -0.688476,-0.234375 -0.336914,-0.08057 -0.681153,-0.08057 -1.010742,0 -1.560058,0.651856 -0.541993,0.644531 -0.541993,1.853027 V 17 h -2.62207 V 8.796875 h 2.62207 v 1.347656 q 0.505372,-0.8056638 1.157227,-1.1718747 0.65918,-0.3735352 1.574707,-0.3735352 0.131836,0 0.285645,0.014648 0.153808,0.00732 0.446777,0.043945 z"
       id="path11151" />
    <path
       d="m 97.978516,6.0649414 h 2.819824 v 8.8037106 h 4.95117 V 17 h -7.770994 z"
       id="path11148" />
    <path
       d="m 111.32324,10.474121 q -0.87158,0 -1.33301,0.629883 -0.4541,0.622559 -0.4541,1.801758 0,1.179199 0.4541,1.809082 0.46143,0.622558 1.33301,0.622558 0.85694,0 1.31104,-0.622558 0.4541,-0.629883 0.4541,-1.809082 0,-1.179199 -0.4541,-1.801758 -0.4541,-0.629883 -1.31104,-0.629883 z m 0,-1.8749999 q 2.1167,0 3.30322,1.1425781 1.19385,1.1425778 1.19385,3.1640628 0,2.021484 -1.19385,3.164062 -1.18652,1.142578 -3.30322,1.142578 -2.12402,0 -3.32519,-1.142578 -1.19385,-1.142578 -1.19385,-3.164062 0,-2.021485 1.19385,-3.1640628 1.20117,-1.1425781 3.32519,-1.1425781 z"
       id="path11145" />
    <path
       d="m 123.30566,15.608398 q -0.54199,0.717774 -1.19384,1.054688 Q 121.45996,17 120.60303,17 q -1.50147,0 -2.48291,-1.179199 -0.98145,-1.186524 -0.98145,-3.017578 0,-1.838379 0.98145,-3.0102542 0.98144,-1.1791993 2.48291,-1.1791993 0.85693,0 1.50879,0.3369141 0.65185,0.3369141 1.19384,1.0620114 v -1.21582 h 2.63672 v 7.375488 q 0,1.977539 -1.25244,3.017578 -1.24512,1.047364 -3.61816,1.047364 -0.76905,0 -1.48682,-0.117188 -0.71777,-0.117187 -1.44287,-0.358887 v -2.043457 q 0.68848,0.395508 1.34766,0.585938 0.65918,0.197754 1.32568,0.197754 1.28906,0 1.88965,-0.563965 0.60058,-0.563965 0.60058,-1.765137 z m -1.72851,-5.10498 q -0.81299,0 -1.26709,0.600586 -0.4541,0.600586 -0.4541,1.699219 0,1.127929 0.43945,1.713867 0.43945,0.578613 1.28174,0.578613 0.82031,0 1.27441,-0.600586 0.4541,-0.600586 0.4541,-1.691894 0,-1.098633 -0.4541,-1.699219 -0.4541,-0.600586 -1.27441,-0.600586 z"
       id="path11142" />
    <path
       d="m 128.46191,8.796875 h 2.62207 V 17 h -2.62207 z m 0,-3.1933594 h 2.62207 v 2.1386719 h -2.62207 z"
       id="path11139" />
    <path
       d="M 140.01221,9.0532227 V 11.04541 q -0.84229,-0.351562 -1.62598,-0.527344 -0.78369,-0.175781 -1.47949,-0.175781 -0.74707,0 -1.11328,0.19043 -0.35889,0.183105 -0.35889,0.571289 0,0.314941 0.271,0.483398 0.27832,0.168457 0.98877,0.249024 l 0.46142,0.06592 q 2.01416,0.256347 2.70996,0.842285 0.6958,0.585937 0.6958,1.838379 0,1.311035 -0.96679,1.970215 -0.9668,0.659179 -2.88575,0.659179 -0.81298,0 -1.68457,-0.131836 -0.86425,-0.124511 -1.77978,-0.380859 V 14.70752 q 0.78369,0.380859 1.604,0.571289 0.82764,0.190429 1.67725,0.190429 0.76904,0 1.15723,-0.212402 0.38818,-0.212402 0.38818,-0.629883 0,-0.351562 -0.271,-0.520019 -0.26367,-0.175782 -1.06201,-0.270996 l -0.46142,-0.05859 q -1.75049,-0.219727 -2.45362,-0.812989 -0.70312,-0.593261 -0.70312,-1.801757 0,-1.3037113 0.89355,-1.9335941 0.89356,-0.6298828 2.73926,-0.6298828 0.7251,0 1.52344,0.1098633 0.79834,0.1098633 1.73584,0.3442383 z"
       id="path11136" />
    <path
       d="M 145.39551,6.4677734 V 8.796875 h 2.70263 v 1.875 h -2.70263 v 3.479004 q 0,0.571289 0.22705,0.776367 0.22705,0.197754 0.90088,0.197754 h 1.34765 V 17 h -2.24853 q -1.55274,0 -2.20459,-0.644531 -0.64453,-0.651856 -0.64453,-2.20459 v -3.479004 h -1.30371 v -1.875 h 1.30371 V 6.4677734 Z"
       id="path11133" />
    <path
       d="m 149.70215,8.796875 h 2.62207 V 17 h -2.62207 z m 0,-3.1933594 h 2.62207 v 2.1386719 h -2.62207 z"
       id="path11130" />
    <path
       d="m 161.47217,9.0532227 v 2.1386723 q -0.53467,-0.366211 -1.07666,-0.541993 -0.53467,-0.175781 -1.11328,-0.175781 -1.09864,0 -1.71387,0.644531 -0.60791,0.637207 -0.60791,1.78711 0,1.149902 0.60791,1.794433 0.61523,0.637207 1.71387,0.637207 0.61523,0 1.16455,-0.183105 0.55664,-0.183106 1.02539,-0.541992 v 2.145996 q -0.61524,0.227051 -1.25244,0.336914 -0.62989,0.117187 -1.26709,0.117187 -2.21924,0 -3.47168,-1.135254 -1.25244,-1.142578 -1.25244,-3.171386 0,-2.028809 1.25244,-3.1640628 1.25244,-1.1425781 3.47168,-1.1425781 0.64453,0 1.26709,0.1171875 0.62988,0.1098633 1.25244,0.3369141 z"
       id="path11127" />
  </g>
  <path
     id="_ionicons_svg_md-locate"
     d="M 12.5,8.036 A 4.464,4.464 0 1 0 16.964,12.5 4.477,4.477 0 0 0 12.5,8.036 Z M 23.155,11.31 A 10.755,10.755 0 0 0 13.69,1.846 V 0 H 11.31 V 1.845 A 10.755,10.755 0 0 0 1.845,11.309 H 0 v 2.381 h 1.845 a 10.755,10.755 0 0 0 9.465,9.465 V 25 h 2.38 V 23.155 A 10.755,10.755 0 0 0 23.155,13.69 H 25 V 11.31 Z M 12.5,20.833 A 8.333,8.333 0 1 1 20.833,12.5 8.358,8.358 0 0 1 12.5,20.833 Z"
     fill="#2c2c2c" />
</svg>
